<svg viewBox="0 0 160 160" fill="none" xmlns="http://www.w3.org/2000/svg">
<g clip-path="url(#clip0_5_2)">
<path fill-rule="evenodd" clip-rule="evenodd" d="M59.9999 94.8909C57.9077 94.8909 56.2162 96.5844 56.2162 98.6789C56.2162 100.778 57.9077 102.472 59.9999 102.472C62.0922 102.472 63.7838 100.778 63.7838 98.6789C63.7838 96.5844 62.0922 94.8909 59.9999 94.8909Z" />
<path fill-rule="evenodd" clip-rule="evenodd" d="M95.6758 106.262C93.5835 106.262 91.8919 107.956 91.8919 110.051C91.8919 112.15 93.5835 113.843 95.6758 113.843C97.768 113.843 99.4595 112.15 99.4595 110.051C99.4595 107.956 97.768 106.262 95.6758 106.262Z" />
<path fill-rule="evenodd" clip-rule="evenodd" d="M151.68 115.835C150.418 116.468 148.604 116.502 146.93 115.922C145.799 115.522 144.579 115.146 143.364 114.771C141.11 114.082 137.342 112.931 136.624 112.06C135.447 110.487 133.211 110.174 131.64 111.362C130.07 112.546 129.756 114.775 130.943 116.35C131.336 116.882 131.868 117.319 132.404 117.742C126.965 125.283 103.085 140.287 69.3134 132.894C54.0959 129.562 43.853 123.476 39.6855 115.303C36.6808 109.397 37.3644 103.317 38.8026 100.013C42.9368 91.4125 72.7784 71.6061 91.831 60.3908C93.5208 59.3876 94.0856 57.2053 93.0889 55.5081C92.0921 53.8156 89.8185 53.1357 88.2189 54.2434C86.681 55.1468 81.455 58.2561 74.7862 62.4874C72.5316 60.9708 68.6346 59.0976 62.3882 58.4842C52.4822 57.5001 29.5895 53.1214 22.1944 49.9884C16.8973 47.7442 4.87426 41.8014 7.53707 35.1121C8.15413 33.5527 11.0543 31.0282 17.3387 28.6225C22.1802 26.773 26.9979 25.7509 30.6386 25.3421C30.1496 25.5797 29.675 25.8079 29.2288 26.0266C24.9475 28.109 20.2768 30.4386 17.1393 33.1914C16.9115 33.0439 16.6741 32.8966 16.5128 32.735C15.16 31.3182 12.9292 31.2135 11.4863 32.6209C10.0623 33.9806 10.01 36.2389 11.3723 37.6603C12.6396 38.9915 14.5145 39.9947 16.902 40.7602C16.9923 40.7887 17.0729 40.8315 17.1631 40.8505C25.46 43.4083 40.2123 43.0898 61.0117 42.2626C69.9779 41.9107 78.4458 41.5779 85.5086 41.7158C108.923 42.1817 126.519 51.5097 139.306 70.2369C147.162 81.7423 144.328 93.0766 139.834 102.927C139.296 102.514 138.723 101.977 138.291 101.444C137.062 99.9086 134.787 99.6946 133.292 100.878C131.755 102.11 131.498 104.349 132.723 105.889C133.444 106.802 137.156 111.076 141.755 110.711C141.84 110.715 141.916 110.706 142.002 110.7C142.14 110.682 142.282 110.706 142.43 110.682C145.571 110.107 147.546 110.259 149.392 111.419C151.838 112.964 153.043 113.886 152.8 114.656C152.658 115.142 152.292 115.488 151.68 115.835ZM54.5991 76.118C53.8919 76.6361 53.1989 77.1496 52.5011 77.6631C51.7511 76.8549 51.1531 76.0847 50.8778 75.5237C51.7037 75.2764 53.0802 75.5712 54.5991 76.118ZM152.819 105.162C151.059 104.045 149.212 103.56 147.418 103.36C151.632 93.0671 154.315 79.5933 145.183 66.21C131.208 45.7332 111.173 35.0931 85.6462 34.5843C78.3746 34.4417 69.8024 34.7793 60.7317 35.1406C50.1991 35.559 36.1826 36.1058 26.6562 35.3165C28.5548 34.2849 30.5768 33.2959 32.3283 32.4449C39.0304 29.1787 44.3086 26.6351 42.5619 22.1234C41.6458 19.4894 38.9166 18.1059 34.4311 18.0061C24.9902 17.7922 4.58946 23.2597 0.920391 32.4782C-1.14428 37.6699 -1.48615 47.692 19.4224 56.5493C28.0232 60.2005 52.3161 64.6506 61.6905 65.5824C64.339 65.8392 66.3658 66.3764 67.9037 66.9469C65.7535 68.3637 63.5463 69.8519 61.3297 71.3732C57.4803 69.1767 51.1863 66.5856 46.4873 69.7948C44.6694 71.0261 43.6346 72.8423 43.5871 74.9104C43.5207 77.4824 45.0775 79.9975 46.829 82.0228C39.9086 87.552 34.3124 92.9101 32.3283 97.0416C30.1164 102.119 29.2146 110.43 33.344 118.536C38.5843 128.824 50.1706 135.999 67.7898 139.859C90.8153 144.894 110.703 140.358 123.86 133.422C131.184 129.562 136.382 124.954 138.907 120.842C139.691 121.09 140.474 121.342 141.28 121.594C142.406 121.935 143.531 122.278 144.584 122.654C148.068 123.86 151.923 123.699 154.89 122.202C154.942 122.178 154.998 122.144 155.055 122.116C157.291 120.936 158.9 119.044 159.607 116.763C161.506 110.611 156.086 107.211 152.819 105.162Z" />
</g>
</svg>
