<svg viewBox="0 0 512 512" height="22" width="22" fill="none" xmlns="http://www.w3.org/2000/svg">
<path d="M409.6 77H96C85.4 77 76.8 85.6144 76.8 96.2321L76.808 282.143C76.808 324.614 111.208 359.071 153.608 359.071H307.208C349.6 359.071 384 324.614 384 282.143H409.6C466.104 282.143 512 236.162 512 179.571C512 122.981 466.08 77 409.6 77ZM409.6 230.857H384V128.286H409.6C437.8 128.286 460.8 151.324 460.8 179.571C460.8 207.819 437.84 230.857 409.6 230.857ZM448 384.714H12.8C5.7312 384.714 0 390.484 0 397.536C0 418.771 17.192 436 38.4 436H422.4C443.608 436 460.8 418.779 460.8 397.536C460.8 390.484 455.04 384.714 448 384.714Z"/>
</svg>
