<svg viewBox="0 0 104 104" fill="none" xmlns="http://www.w3.org/2000/svg">
<g clip-path="url(#clip0_7_17)">
<path d="M11.92 38.22C11.8201 38.0609 11.6753 37.935 11.5039 37.8581C11.3324 37.7813 11.142 37.7571 10.9568 37.7884C10.7716 37.8198 10.5998 37.9054 10.4632 38.0343C10.3266 38.1633 10.2313 38.3299 10.1894 38.513C10.1474 38.6961 10.1607 38.8876 10.2276 39.0632C10.2945 39.2387 10.4119 39.3905 10.565 39.4994C10.7181 39.6082 10.9001 39.6692 11.0879 39.6747C11.2756 39.6801 11.4608 39.6298 11.62 39.53C11.7257 39.4637 11.8174 39.3772 11.8897 39.2755C11.962 39.1738 12.0136 39.0588 12.0414 38.9372C12.0693 38.8155 12.0729 38.6895 12.0521 38.5665C12.0312 38.4434 11.9864 38.3257 11.92 38.22" />
<path d="M67.44 13.37C67.3401 13.2109 67.1953 13.0849 67.0238 13.0081C66.8524 12.9313 66.662 12.907 66.4768 12.9384C66.2916 12.9698 66.1198 13.0554 65.9832 13.1843C65.8466 13.3133 65.7513 13.4799 65.7094 13.663C65.6674 13.8461 65.6807 14.0376 65.7476 14.2132C65.8144 14.3887 65.9319 14.5405 66.085 14.6494C66.2381 14.7582 66.4201 14.8192 66.6078 14.8247C66.7956 14.8301 66.9808 14.7798 67.14 14.68C67.2457 14.6137 67.3374 14.5272 67.4097 14.4255C67.482 14.3238 67.5336 14.2088 67.5614 14.0871C67.5893 13.9655 67.5929 13.8395 67.5721 13.7165C67.5512 13.5934 67.5064 13.4757 67.44 13.37" />
<path d="M78.91 50.65C78.8621 50.8641 78.8788 51.0875 78.9578 51.2921C79.0368 51.4967 79.1747 51.6733 79.354 51.7997C79.5333 51.926 79.746 51.9963 79.9653 52.0019C80.1845 52.0074 80.4005 51.9478 80.586 51.8307C80.7714 51.7136 80.918 51.5441 81.0072 51.3438C81.0965 51.1434 81.1243 50.9211 81.0873 50.7049C81.0503 50.4887 80.9501 50.2883 80.7993 50.1291C80.6485 49.9698 80.4538 49.8588 80.24 49.81C80.0975 49.7775 79.95 49.7735 79.8059 49.7981C79.6619 49.8228 79.5241 49.8757 79.4005 49.9537C79.2769 50.0318 79.17 50.1335 79.0858 50.253C79.0016 50.3724 78.9419 50.5074 78.91 50.65" />
<path d="M62.35 87.65C62.3112 87.8171 62.3232 87.9919 62.3846 88.1521C62.4459 88.3122 62.5537 88.4504 62.6941 88.5488C62.8345 88.6472 63.0012 88.7014 63.1727 88.7044C63.3442 88.7074 63.5126 88.6591 63.6564 88.5656C63.8002 88.4722 63.9127 88.3378 63.9796 88.1799C64.0465 88.022 64.0646 87.8477 64.0317 87.6794C63.9987 87.5111 63.9162 87.3565 63.7948 87.2354C63.6733 87.1144 63.5184 87.0324 63.35 87C63.1316 86.958 62.9055 87.0023 62.719 87.1235C62.5326 87.2447 62.4003 87.4334 62.35 87.65" />
<path d="M19.18 21.16C19.1573 21.2599 19.1646 21.3644 19.2011 21.4602C19.2375 21.556 19.3015 21.6389 19.3849 21.6985C19.4683 21.758 19.5675 21.7916 19.67 21.795C19.7724 21.7983 19.8736 21.7713 19.9608 21.7174C20.0479 21.6634 20.1172 21.5849 20.1599 21.4917C20.2025 21.3985 20.2167 21.2948 20.2006 21.1935C20.1845 21.0923 20.1388 20.9981 20.0693 20.9227C19.9998 20.8474 19.9096 20.7942 19.81 20.77C19.743 20.7537 19.6734 20.7509 19.6053 20.7617C19.5372 20.7725 19.472 20.7968 19.4133 20.8331C19.3547 20.8694 19.3039 20.917 19.2638 20.9731C19.2238 21.0292 19.1953 21.0928 19.18 21.16" />
<path d="M21.86 69.96C21.834 69.8181 21.7666 69.6871 21.6663 69.5835C21.5659 69.4799 21.4372 69.4083 21.2962 69.3778C21.1552 69.3473 21.0083 69.3593 20.8741 69.4122C20.74 69.4651 20.6245 69.5566 20.5422 69.6751C20.46 69.7936 20.4147 69.9338 20.412 70.078C20.4094 70.2222 20.4495 70.364 20.5274 70.4854C20.6053 70.6068 20.7173 70.7024 20.8495 70.7602C20.9817 70.818 21.128 70.8353 21.27 70.81C21.3646 70.7931 21.455 70.7577 21.536 70.7058C21.6169 70.6539 21.6868 70.5866 21.7416 70.5076C21.7964 70.4286 21.8351 70.3396 21.8554 70.2456C21.8757 70.1516 21.8773 70.0546 21.86 69.96Z" />
<path fill-rule="evenodd" clip-rule="evenodd" d="M103.3 51.65C103.3 80.1755 80.1755 103.3 51.65 103.3C23.1245 103.3 0 80.1755 0 51.65C0 23.1245 23.1245 0 51.65 0C61.9734 0 71.5895 3.02867 79.658 8.24595C76.5356 9.79928 75.462 14.2822 74.1649 19.6983C74.0204 20.3016 73.8732 20.9164 73.72 21.54C71.8144 29.3183 67.5249 29.1646 65.2811 29.0841C65.0758 29.0768 64.8876 29.07 64.72 29.07C63.6831 29.07 63.5063 28.2637 62.9285 25.6281C62.3919 23.1801 61.5092 19.1539 59.27 12.73C54.62 -0.609985 42.53 2.73001 33.34 8.23001C22.2034 14.9043 26.4217 28.7878 29.3435 38.404C29.486 38.8733 29.6255 39.3324 29.76 39.78C28.9419 40.5682 26.9966 41.2692 24.5559 42.1488C22.1037 43.0326 19.1515 44.0965 16.34 45.61C9.38999 49.35 2.27999 55.36 0.429993 58.12C0.895555 61.872 1.77422 65.561 3.04999 69.12C3.46238 69.5008 3.92708 69.8207 4.42999 70.07C7.71999 71.6 12.56 68.98 17.14 64.23C18.5113 62.8686 20.0464 61.6829 21.71 60.7C25.3699 58.3413 29.3281 56.4816 33.48 55.17C33.48 55.17 37.97 62.06 42.13 70.23C46.29 78.4 37.64 81.12 36.68 81.12C36.6256 81.12 36.5304 81.1159 36.3998 81.1103C34.2279 81.0172 22.2624 80.5038 25.13 91.38C28.17 102.91 44.83 98.75 53.32 93.14C61.81 87.53 59.73 69.27 59.73 69.27C68.06 67.99 70.62 76.8 71.42 81.27C71.5863 82.1992 71.6402 83.2749 71.6965 84.3975C71.9111 88.6755 72.1599 93.6354 78.79 93.77C79.9688 93.7865 81.1419 93.6039 82.26 93.23C85.4783 90.8524 88.4111 88.1109 91 85.06C91.2703 84.6372 91.4254 84.1512 91.45 83.65C91.4196 83.5931 91.3371 83.4571 91.2118 83.2508C90.0158 81.281 84.9279 72.901 84.24 65.75C83.68 60.28 76.53 54.21 72.24 51.02C71.8793 50.7459 71.5829 50.3964 71.3714 49.9958C71.1599 49.5952 71.0385 49.1532 71.0157 48.7008C70.9928 48.2484 71.0691 47.7965 71.2391 47.3766C71.4091 46.9567 71.6688 46.5791 72 46.27C76.23 42.27 83.69 34.47 86.05 30.35C88.2486 26.058 89.4257 21.3161 89.4896 16.4944C98.0591 25.714 103.3 38.07 103.3 51.65ZM79.658 8.24595C83.2705 10.5819 86.5728 13.3565 89.4896 16.4944C89.4897 16.483 89.4899 16.4715 89.49 16.46C86.5686 13.3251 83.2702 10.564 79.67 8.24001C79.666 8.24199 79.662 8.24396 79.658 8.24595ZM36.22 21C36.78 28.65 40.87 32.85 49.36 29.65C57.85 26.48 59.3 24.21 57.21 17.8C55.12 11.39 52.75 7.11001 43.75 10.11C43.75 10.11 35.59 12.35 36.22 21Z" />
<path d="M88.44 42.04L87.27 39.72L84.72 39.19L87.04 38.02L87.56 35.47L88.74 37.79L91.29 38.31L88.97 39.49L88.44 42.04Z"/>
<path d="M54.25 19.36C54.7863 20.4808 54.9205 21.752 54.63 22.96Z"/>
<path d="M54.63 24.06H54.42C54.1382 24.0043 53.8899 23.8397 53.7288 23.6019C53.5678 23.3641 53.5071 23.0723 53.56 22.79C53.8168 21.785 53.7069 20.7213 53.25 19.79C53.1705 19.5316 53.19 19.2529 53.3045 19.008C53.4191 18.7631 53.6205 18.5695 53.8698 18.4648C54.1191 18.3601 54.3983 18.3518 54.6534 18.4414C54.9084 18.5311 55.1211 18.7124 55.25 18.95C55.8699 20.2699 56.025 21.7608 55.69 23.18C55.6416 23.4263 55.5098 23.6484 55.3166 23.8087C55.1235 23.969 54.881 24.0578 54.63 24.06V24.06Z" />
<path d="M51.56 13.33C51.879 13.7092 52.151 14.1255 52.37 14.57Z"/>
<path d="M52.36 15.65C52.1577 15.6587 51.9571 15.611 51.7804 15.512C51.6038 15.4131 51.4582 15.267 51.36 15.09C51.1766 14.7384 50.9624 14.4038 50.72 14.09C50.5244 13.8853 50.4152 13.6131 50.4152 13.33C50.4152 13.0469 50.5244 12.7747 50.72 12.57C50.9196 12.3763 51.1868 12.268 51.465 12.268C51.7431 12.268 52.0103 12.3763 52.21 12.57C52.6077 13.0203 52.9439 13.5213 53.21 14.06C53.2925 14.2175 53.3353 14.3927 53.3346 14.5705C53.3339 14.7483 53.2897 14.9232 53.2059 15.08C53.1221 15.2368 53.0012 15.3707 52.8537 15.4701C52.7063 15.5694 52.5368 15.6312 52.36 15.65Z" />
</g>
</svg>
